<svg xmlns="http://www.w3.org/2000/svg" xmlns:xlink="http://www.w3.org/1999/xlink" contentStyleType="text/css" data-diagram-type="CLASS" height="1021px" preserveAspectRatio="none" style="width:619px;height:1021px;background:#FFFFFF;" version="1.1" viewBox="0 0 619 1021" width="619px" zoomAndPan="magnify"><defs/><g><!--class IMpvFunction--><g class="entity" data-entity="IMpvFunction" data-source-line="4" data-uid="ent0002" id="entity_IMpvFunction"><rect fill="#F1F1F1" height="194.6719" rx="3.5" ry="3.5" style="stroke:#181818;stroke-width:0.5;" width="152.7861" x="264.13" y="819.91"/><ellipse cx="291.3217" cy="835.91" fill="#B4A7E5" rx="11" ry="11" style="stroke:#181818;stroke-width:1;"/><path d="M287.2436,831.6756 L287.2436,829.5194 L294.6342,829.5194 L294.6342,831.6756 L292.1655,831.6756 L292.1655,839.7538 L294.6342,839.7538 L294.6342,841.91 L287.2436,841.91 L287.2436,839.7538 L289.7124,839.7538 L289.7124,831.6756 L287.2436,831.6756 Z " fill="#000000"/><text fill="#000000" font-family="sans-serif" font-size="14" font-style="italic" lengthAdjust="spacing" textLength="93.6934" x="308.031" y="840.7567">IMpvFunction</text><line style="stroke:#181818;stroke-width:0.5;" x1="265.13" x2="415.9161" y1="851.91" y2="851.91"/><ellipse cx="275.13" cy="865.5584" fill="none" rx="3" ry="3" style="stroke:#038048;stroke-width:1;"/><text fill="#000000" font-family="sans-serif" font-size="14" lengthAdjust="spacing" textLength="46.8262" x="284.13" y="868.9051">Create</text><ellipse cx="275.13" cy="881.8553" fill="none" rx="3" ry="3" style="stroke:#038048;stroke-width:1;"/><text fill="#000000" font-family="sans-serif" font-size="14" lengthAdjust="spacing" textLength="58.5908" x="284.13" y="885.202">Initialize</text><ellipse cx="275.13" cy="898.1522" fill="none" rx="3" ry="3" style="stroke:#038048;stroke-width:1;"/><text fill="#000000" font-family="sans-serif" font-size="14" lengthAdjust="spacing" textLength="71.9551" x="284.13" y="901.4989">Command</text><ellipse cx="275.13" cy="914.4491" fill="none" rx="3" ry="3" style="stroke:#038048;stroke-width:1;"/><text fill="#000000" font-family="sans-serif" font-size="14" lengthAdjust="spacing" textLength="126.7861" x="284.13" y="917.7957">TerminateDestroy</text><ellipse cx="275.13" cy="930.7459" fill="none" rx="3" ry="3" style="stroke:#038048;stroke-width:1;"/><text fill="#000000" font-family="sans-serif" font-size="14" lengthAdjust="spacing" textLength="69.7129" x="284.13" y="934.0926">SetOption</text><ellipse cx="275.13" cy="947.0428" fill="none" rx="3" ry="3" style="stroke:#038048;stroke-width:1;"/><text fill="#000000" font-family="sans-serif" font-size="14" lengthAdjust="spacing" textLength="111.4941" x="284.13" y="950.3895">SetOptionString</text><ellipse cx="275.13" cy="963.3397" fill="none" rx="3" ry="3" style="stroke:#038048;stroke-width:1;"/><text fill="#000000" font-family="sans-serif" font-size="14" lengthAdjust="spacing" textLength="124.9336" x="284.13" y="966.6864">GetPropertystring</text><ellipse cx="275.13" cy="979.6366" fill="none" rx="3" ry="3" style="stroke:#038048;stroke-width:1;"/><text fill="#000000" font-family="sans-serif" font-size="14" lengthAdjust="spacing" textLength="82.7832" x="284.13" y="982.9832">SetProperty</text><ellipse cx="275.13" cy="995.9334" fill="none" rx="3" ry="3" style="stroke:#038048;stroke-width:1;"/><text fill="#000000" font-family="sans-serif" font-size="14" lengthAdjust="spacing" textLength="31.0352" x="284.13" y="999.2801">Free</text><line style="stroke:#181818;stroke-width:0.5;" x1="265.13" x2="415.9161" y1="1006.5819" y2="1006.5819"/></g><!--class Form1--><g class="entity" data-entity="Form1" data-source-line="17" data-uid="ent0003" id="entity_Form1"><rect fill="#F1F1F1" height="292.4531" rx="3.5" ry="3.5" style="stroke:#181818;stroke-width:0.5;" width="245.5977" x="57.72" y="180.19"/><ellipse cx="153.8094" cy="196.19" fill="#ADD1B2" rx="11" ry="11" style="stroke:#181818;stroke-width:1;"/><path d="M156.7781,201.8306 Q156.2,202.1275 155.5594,202.2681 Q154.9187,202.4244 154.2156,202.4244 Q151.7156,202.4244 150.3875,200.7838 Q149.075,199.1275 149.075,196.0025 Q149.075,192.8775 150.3875,191.2213 Q151.7156,189.565 154.2156,189.565 Q154.9187,189.565 155.5594,189.7213 Q156.2156,189.8775 156.7781,190.1744 L156.7781,192.8931 Q156.1531,192.315 155.5594,192.0494 Q154.9656,191.7681 154.3406,191.7681 Q152.9969,191.7681 152.3094,192.8463 Q151.6219,193.9088 151.6219,196.0025 Q151.6219,198.0963 152.3094,199.1744 Q152.9969,200.2369 154.3406,200.2369 Q154.9656,200.2369 155.5594,199.9713 Q156.1531,199.69 156.7781,199.1119 L156.7781,201.8306 Z " fill="#000000"/><text fill="#000000" font-family="sans-serif" font-size="14" lengthAdjust="spacing" textLength="44.9189" x="174.3094" y="201.0367">Form1</text><line style="stroke:#181818;stroke-width:0.5;" x1="58.72" x2="302.3177" y1="212.19" y2="212.19"/><rect fill="none" height="6" style="stroke:#C82930;stroke-width:1;" width="6" x="65.72" y="222.8384"/><text fill="#000000" font-family="sans-serif" font-size="14" lengthAdjust="spacing" textLength="69.2275" x="77.72" y="229.1851">mpv: Mpv</text><rect fill="none" height="6" style="stroke:#C82930;stroke-width:1;" width="6" x="65.72" y="239.1353"/><text fill="#000000" font-family="sans-serif" font-size="14" lengthAdjust="spacing" textLength="147.4922" x="77.72" y="245.482">playlist: List&lt;string&gt;</text><rect fill="none" height="6" style="stroke:#C82930;stroke-width:1;" width="6" x="65.72" y="255.4322"/><text fill="#000000" font-family="sans-serif" font-size="14" lengthAdjust="spacing" textLength="117.2637" x="77.72" y="261.7789">currentIndex: int</text><rect fill="none" height="6" style="stroke:#C82930;stroke-width:1;" width="6" x="65.72" y="271.7291"/><text fill="#000000" font-family="sans-serif" font-size="14" lengthAdjust="spacing" textLength="101.1035" x="77.72" y="278.0757">isPlaying: bool</text><text fill="#000000" font-family="sans-serif" font-size="14" lengthAdjust="spacing" textLength="4.4502" x="77.72" y="294.3726">&#160;</text><ellipse cx="68.72" cy="307.3228" fill="none" rx="3" ry="3" style="stroke:#038048;stroke-width:1;"/><text fill="#000000" font-family="sans-serif" font-size="14" lengthAdjust="spacing" textLength="111.501" x="77.72" y="310.6695">SongsCount: int</text><ellipse cx="68.72" cy="323.6197" fill="none" rx="3" ry="3" style="stroke:#038048;stroke-width:1;"/><text fill="#000000" font-family="sans-serif" font-size="14" lengthAdjust="spacing" textLength="126.8955" x="77.72" y="326.9664">SelectedIndex: int</text><ellipse cx="68.72" cy="339.9166" fill="none" rx="3" ry="3" style="stroke:#038048;stroke-width:1;"/><text fill="#000000" font-family="sans-serif" font-size="14" lengthAdjust="spacing" textLength="161.458" x="77.72" y="343.2632">SelectedSpeed: double</text><line style="stroke:#181818;stroke-width:0.5;" x1="58.72" x2="302.3177" y1="350.565" y2="350.565"/><ellipse cx="68.72" cy="364.2134" fill="#84BE84" rx="3" ry="3" style="stroke:#038048;stroke-width:1;"/><text fill="#000000" font-family="sans-serif" font-size="14" lengthAdjust="spacing" textLength="55.8428" x="77.72" y="367.5601">Form1()</text><ellipse cx="68.72" cy="380.5103" fill="#84BE84" rx="3" ry="3" style="stroke:#038048;stroke-width:1;"/><text fill="#000000" font-family="sans-serif" font-size="14" lengthAdjust="spacing" textLength="174.1113" x="77.72" y="383.857">TestAddSong(file: string)</text><ellipse cx="68.72" cy="396.8072" fill="#84BE84" rx="3" ry="3" style="stroke:#038048;stroke-width:1;"/><text fill="#000000" font-family="sans-serif" font-size="14" lengthAdjust="spacing" textLength="164.6982" x="77.72" y="400.1539">SetSelectedIndex(i: int)</text><ellipse cx="68.72" cy="413.1041" fill="#84BE84" rx="3" ry="3" style="stroke:#038048;stroke-width:1;"/><text fill="#000000" font-family="sans-serif" font-size="14" lengthAdjust="spacing" textLength="139.002" x="77.72" y="416.4507">SimulateNextClick()</text><ellipse cx="68.72" cy="429.4009" fill="#84BE84" rx="3" ry="3" style="stroke:#038048;stroke-width:1;"/><text fill="#000000" font-family="sans-serif" font-size="14" lengthAdjust="spacing" textLength="219.5977" x="77.72" y="432.7476">TestSelectSpeed(speed: string)</text><ellipse cx="68.72" cy="445.6978" fill="#84BE84" rx="3" ry="3" style="stroke:#038048;stroke-width:1;"/><text fill="#000000" font-family="sans-serif" font-size="14" lengthAdjust="spacing" textLength="183.4219" x="77.72" y="449.0445">TestSetPlaying(play: bool)</text><ellipse cx="68.72" cy="461.9947" fill="#84BE84" rx="3" ry="3" style="stroke:#038048;stroke-width:1;"/><text fill="#000000" font-family="sans-serif" font-size="14" lengthAdjust="spacing" textLength="147.9434" x="77.72" y="465.3414">SimulatePauseClick()</text></g><!--class Mpv--><g class="entity" data-entity="Mpv" data-source-line="36" data-uid="ent0004" id="entity_Mpv"><rect fill="#F1F1F1" height="227.2656" rx="3.5" ry="3.5" style="stroke:#181818;stroke-width:0.5;" width="347.043" x="7" y="532.64"/><ellipse cx="161.646" cy="548.64" fill="#ADD1B2" rx="11" ry="11" style="stroke:#181818;stroke-width:1;"/><path d="M164.6147,554.2806 Q164.0366,554.5775 163.396,554.7181 Q162.7554,554.8744 162.0522,554.8744 Q159.5522,554.8744 158.2241,553.2338 Q156.9116,551.5775 156.9116,548.4525 Q156.9116,545.3275 158.2241,543.6713 Q159.5522,542.015 162.0522,542.015 Q162.7554,542.015 163.396,542.1713 Q164.0522,542.3275 164.6147,542.6244 L164.6147,545.3431 Q163.9897,544.765 163.396,544.4994 Q162.8022,544.2181 162.1772,544.2181 Q160.8335,544.2181 160.146,545.2963 Q159.4585,546.3588 159.4585,548.4525 Q159.4585,550.5463 160.146,551.6244 Q160.8335,552.6869 162.1772,552.6869 Q162.8022,552.6869 163.396,552.4213 Q163.9897,552.14 164.6147,551.5619 L164.6147,554.2806 Z " fill="#000000"/><text fill="#000000" font-family="sans-serif" font-size="14" lengthAdjust="spacing" textLength="29.251" x="182.146" y="553.4867">Mpv</text><line style="stroke:#181818;stroke-width:0.5;" x1="8" x2="353.043" y1="564.64" y2="564.64"/><rect fill="none" height="6" style="stroke:#C82930;stroke-width:1;" width="6" x="15" y="575.2884"/><text fill="#000000" font-family="sans-serif" font-size="14" lengthAdjust="spacing" textLength="160.0498" x="27" y="581.6351">function: IMpvFunction</text><rect fill="none" height="6" style="stroke:#C82930;stroke-width:1;" width="6" x="15" y="591.5853"/><text fill="#000000" font-family="sans-serif" font-size="14" lengthAdjust="spacing" textLength="95.0605" x="27" y="597.932">handle: IntPtr</text><rect fill="none" height="6" style="stroke:#C82930;stroke-width:1;" width="6" x="15" y="607.8822"/><text fill="#000000" font-family="sans-serif" font-size="14" lengthAdjust="spacing" textLength="101.3906" x="27" y="614.2289">disposed: bool</text><line style="stroke:#181818;stroke-width:0.5;" x1="8" x2="353.043" y1="621.5306" y2="621.5306"/><ellipse cx="18" cy="635.1791" fill="#84BE84" rx="3" ry="3" style="stroke:#038048;stroke-width:1;"/><text fill="#000000" font-family="sans-serif" font-size="14" lengthAdjust="spacing" textLength="137.5801" x="27" y="638.5257">Mpv(dllPath: string)</text><ellipse cx="18" cy="651.4759" fill="#84BE84" rx="3" ry="3" style="stroke:#038048;stroke-width:1;"/><text fill="#000000" font-family="sans-serif" font-size="14" lengthAdjust="spacing" textLength="69.5146" x="27" y="654.8226">Initialize()</text><ellipse cx="18" cy="667.7728" fill="#84BE84" rx="3" ry="3" style="stroke:#038048;stroke-width:1;"/><text fill="#000000" font-family="sans-serif" font-size="14" lengthAdjust="spacing" textLength="284.6689" x="27" y="671.1195">Load(path: string, windowHandle: IntPtr)</text><ellipse cx="18" cy="684.0697" fill="#84BE84" rx="3" ry="3" style="stroke:#038048;stroke-width:1;"/><text fill="#000000" font-family="sans-serif" font-size="14" lengthAdjust="spacing" textLength="52.7256" x="27" y="687.4164">Pause()</text><ellipse cx="18" cy="700.3666" fill="#84BE84" rx="3" ry="3" style="stroke:#038048;stroke-width:1;"/><text fill="#000000" font-family="sans-serif" font-size="14" lengthAdjust="spacing" textLength="67.6826" x="27" y="703.7132">Resume()</text><ellipse cx="18" cy="716.6634" fill="#84BE84" rx="3" ry="3" style="stroke:#038048;stroke-width:1;"/><text fill="#000000" font-family="sans-serif" font-size="14" lengthAdjust="spacing" textLength="160.7129" x="27" y="720.0101">SetSpeed(speed: float)</text><ellipse cx="18" cy="732.9603" fill="#84BE84" rx="3" ry="3" style="stroke:#038048;stroke-width:1;"/><text fill="#000000" font-family="sans-serif" font-size="14" lengthAdjust="spacing" textLength="321.043" x="27" y="736.307">SetPropertyString(name: string, value: string)</text><ellipse cx="18" cy="749.2572" fill="#84BE84" rx="3" ry="3" style="stroke:#038048;stroke-width:1;"/><text fill="#000000" font-family="sans-serif" font-size="14" lengthAdjust="spacing" textLength="66.2471" x="27" y="752.6039">Dispose()</text></g><!--class MpvFunction--><g class="entity" data-entity="MpvFunction" data-source-line="51" data-uid="ent0005" id="entity_MpvFunction"><rect fill="#F1F1F1" height="129.4844" rx="3.5" ry="3.5" style="stroke:#181818;stroke-width:0.5;" width="223.8936" x="388.57" y="581.53"/><ellipse cx="451.4846" cy="597.53" fill="#ADD1B2" rx="11" ry="11" style="stroke:#181818;stroke-width:1;"/><path d="M454.4533,603.1706 Q453.8752,603.4675 453.2346,603.6081 Q452.5939,603.7644 451.8908,603.7644 Q449.3908,603.7644 448.0627,602.1238 Q446.7502,600.4675 446.7502,597.3425 Q446.7502,594.2175 448.0627,592.5613 Q449.3908,590.905 451.8908,590.905 Q452.5939,590.905 453.2346,591.0613 Q453.8908,591.2175 454.4533,591.5144 L454.4533,594.2331 Q453.8283,593.655 453.2346,593.3894 Q452.6408,593.1081 452.0158,593.1081 Q450.6721,593.1081 449.9846,594.1863 Q449.2971,595.2488 449.2971,597.3425 Q449.2971,599.4363 449.9846,600.5144 Q450.6721,601.5769 452.0158,601.5769 Q452.6408,601.5769 453.2346,601.3113 Q453.8283,601.03 454.4533,600.4519 L454.4533,603.1706 Z " fill="#000000"/><text fill="#000000" font-family="sans-serif" font-size="14" lengthAdjust="spacing" textLength="89.5645" x="471.9846" y="602.3767">MpvFunction</text><line style="stroke:#181818;stroke-width:0.5;" x1="389.57" x2="611.4636" y1="613.53" y2="613.53"/><rect fill="none" height="6" style="stroke:#C82930;stroke-width:1;" width="6" x="396.57" y="624.1784"/><text fill="#000000" font-family="sans-serif" font-size="14" lengthAdjust="spacing" textLength="113.3809" x="408.57" y="630.5251">dllHandle: IntPtr</text><line style="stroke:#181818;stroke-width:0.5;" x1="389.57" x2="611.4636" y1="637.8269" y2="637.8269"/><ellipse cx="399.57" cy="651.4753" fill="#84BE84" rx="3" ry="3" style="stroke:#038048;stroke-width:1;"/><text fill="#000000" font-family="sans-serif" font-size="14" lengthAdjust="spacing" textLength="197.8936" x="408.57" y="654.822">MpvFunction(dllPath: string)</text><ellipse cx="399.57" cy="667.7722" fill="#84BE84" rx="3" ry="3" style="stroke:#038048;stroke-width:1;"/><text fill="#000000" font-family="sans-serif" font-size="14" lengthAdjust="spacing" textLength="63.3145" x="408.57" y="671.1189">LoadDll()</text><ellipse cx="399.57" cy="684.0691" fill="#84BE84" rx="3" ry="3" style="stroke:#038048;stroke-width:1;"/><text fill="#000000" font-family="sans-serif" font-size="14" lengthAdjust="spacing" textLength="112.3623" x="408.57" y="687.4157">LoadFunctions()</text><ellipse cx="399.57" cy="700.3659" fill="#84BE84" rx="3" ry="3" style="stroke:#038048;stroke-width:1;"/><text fill="#000000" font-family="sans-serif" font-size="14" lengthAdjust="spacing" textLength="66.2471" x="408.57" y="703.7126">Dispose()</text></g><!--class MusicPlayerTest--><g class="entity" data-entity="MusicPlayerTest" data-source-line="61" data-uid="ent0006" id="entity_MusicPlayerTest"><rect fill="#F1F1F1" height="113.1875" rx="3.5" ry="3.5" style="stroke:#181818;stroke-width:0.5;" width="304.1816" x="28.43" y="7"/><ellipse cx="119.5975" cy="23" fill="#ADD1B2" rx="11" ry="11" style="stroke:#181818;stroke-width:1;"/><path d="M122.5662,28.6406 Q121.9881,28.9375 121.3475,29.0781 Q120.7069,29.2344 120.0037,29.2344 Q117.5037,29.2344 116.1756,27.5938 Q114.8631,25.9375 114.8631,22.8125 Q114.8631,19.6875 116.1756,18.0313 Q117.5037,16.375 120.0037,16.375 Q120.7069,16.375 121.3475,16.5313 Q122.0037,16.6875 122.5662,16.9844 L122.5662,19.7031 Q121.9412,19.125 121.3475,18.8594 Q120.7537,18.5781 120.1287,18.5781 Q118.785,18.5781 118.0975,19.6563 Q117.41,20.7188 117.41,22.8125 Q117.41,24.9063 118.0975,25.9844 Q118.785,27.0469 120.1287,27.0469 Q120.7537,27.0469 121.3475,26.7813 Q121.9412,26.5 122.5662,25.9219 L122.5662,28.6406 Z " fill="#000000"/><text fill="#000000" font-family="sans-serif" font-size="14" lengthAdjust="spacing" textLength="113.3467" x="140.0975" y="27.8467">MusicPlayerTest</text><line style="stroke:#181818;stroke-width:0.5;" x1="29.43" x2="331.6116" y1="39" y2="39"/><line style="stroke:#181818;stroke-width:0.5;" x1="29.43" x2="331.6116" y1="47" y2="47"/><ellipse cx="39.43" cy="60.6484" fill="#84BE84" rx="3" ry="3" style="stroke:#038048;stroke-width:1;"/><text fill="#000000" font-family="sans-serif" font-size="14" lengthAdjust="spacing" textLength="250.332" x="48.43" y="63.9951">Test_AddSong_IncreasesListCount()</text><ellipse cx="39.43" cy="76.9453" fill="#84BE84" rx="3" ry="3" style="stroke:#038048;stroke-width:1;"/><text fill="#000000" font-family="sans-serif" font-size="14" lengthAdjust="spacing" textLength="248.3564" x="48.43" y="80.292">Test_NextSong_ChangesSelection()</text><ellipse cx="39.43" cy="93.2422" fill="#84BE84" rx="3" ry="3" style="stroke:#038048;stroke-width:1;"/><text fill="#000000" font-family="sans-serif" font-size="14" lengthAdjust="spacing" textLength="278.1816" x="48.43" y="96.5889">Test_SpeedChange_SetsCorrectSpeed()</text><ellipse cx="39.43" cy="109.5391" fill="#84BE84" rx="3" ry="3" style="stroke:#038048;stroke-width:1;"/><text fill="#000000" font-family="sans-serif" font-size="14" lengthAdjust="spacing" textLength="209.9658" x="48.43" y="112.8857">Test_Pause_TogglesPlayFlag()</text></g><!--reverse link Form1 to Mpv--><g class="link" data-entity-1="Form1" data-entity-2="Mpv" data-source-line="69" data-uid="lnk7" id="link_Form1_Mpv"><path codeLine="69" d="M180.52,484.86 C180.52,504.8 180.52,513.03 180.52,532.27" fill="none" id="Form1-backto-Mpv" style="stroke:#454645;stroke-width:1;"/><polygon fill="#454645" points="180.52,472.86,176.52,478.86,180.52,484.86,184.52,478.86,180.52,472.86" style="stroke:#454645;stroke-width:1;"/></g><!--reverse link Mpv to IMpvFunction--><g class="link" data-entity-1="Mpv" data-entity-2="IMpvFunction" data-source-line="70" data-uid="lnk8" id="link_Mpv_IMpvFunction"><path codeLine="70" d="M253.8154,770.4829 C265.5354,790.1829 271.49,800.2 282.92,819.41" fill="none" id="Mpv-backto-IMpvFunction" style="stroke:#454645;stroke-width:1;"/><polygon fill="none" points="247.68,760.17,247.3101,767.3716,253.8154,770.4829,254.1854,763.2813,247.68,760.17" style="stroke:#454645;stroke-width:1;"/></g><!--link MpvFunction to IMpvFunction--><g class="link" data-entity-1="MpvFunction" data-entity-2="IMpvFunction" data-source-line="71" data-uid="lnk9" id="link_MpvFunction_IMpvFunction"><path codeLine="71" d="M462.4,711.36 C443.18,743.68 428.662,768.0799 407.272,804.0399" fill="none" id="MpvFunction-to-IMpvFunction" style="stroke:#454645;stroke-width:1;stroke-dasharray:7.0,7.0;"/><polygon fill="none" points="398.07,819.51,412.4287,807.1073,402.1153,800.9726,398.07,819.51" style="stroke:#454645;stroke-width:1;"/></g><!--link MusicPlayerTest to Form1--><g class="link" data-entity-1="MusicPlayerTest" data-entity-2="Form1" data-source-line="72" data-uid="lnk10" id="link_MusicPlayerTest_Form1"><path codeLine="72" d="M180.52,120.55 C180.52,138.29 180.52,152.79 180.52,173.82" fill="none" id="MusicPlayerTest-to-Form1" style="stroke:#454645;stroke-width:1;"/><polygon fill="#454645" points="180.52,179.82,184.52,170.82,180.52,174.82,176.52,170.82,180.52,179.82" style="stroke:#454645;stroke-width:1;"/></g><!--SRC=[TLJDZjCm4BxdASnfix1TYMk4AgtQBKHg8TeiN2CtdgOMZXtPJhjbuKLu8XuB_wLn8iZ1ylnvPhxv9c_q4Lf09xgNcEiakK4vro0Fk0QLqE6AybrtslIyrbHmz9eWyxrRIS0Q_3tdL5FCw8yWhqJROawyy0oofTpuha5fAIvUMuB-qjdtPcAf9UMDLtu4NKZHWTGN5QdBKUqL6mcG_BBLxp3bw6kEQeQLIjo9DaAsxqFL2zHsfmoPTeBOCNnXLEaCRStvmQTP1cFTImbSvvp0IuOC745FLM72Z6E6zaAm95HXywItGzDAFn1I2jwa1yeWG_xfOBPwjH8zr-ExjgyI6DGQY4kPKcSSGc9J74NRdXbqFyEBNZ5QVuzBy45b1q1IPSzv7U7Hqjk8wFSCud0TEaqjKBxTssdU0lSAXiH-2CKtXoj8T9QuCuCAap2mN-Tm27JA9kGAngCXZyNCaB7GCYW9LPrGjim8T1ER4iOAh8-praPE3e1i1IPf5tdUeJFbH9m_JT85RzVN4Fe4gc-laXrK3Ec12JoEwKfEJ-MKunR6Z2VC-ZaRrhupZzyLgjd26G0OcrOwOZ3u_WSBs_cQiHY88KAb_ohY1jdnJzPerojQ5swiplOwqgGAJAzoNfk_WW9bbydHEoPZPIdg_5Pcm0qeppvRTkpbeFKUbK7Jh8dPme74iQERKFKiceQ1syWDmyrG_zFZzk7FxpnF_Fg_NIpSrbiA2dEVa2u6-_x-vt9cdJM-M2pzF-Kl]--></g></svg>